<svg width="1600" height="1080" viewBox="0 0 1600 1080" fill="none" xmlns="http://www.w3.org/2000/svg">
  <defs>
    <linearGradient id="bg" x1="0" y1="0" x2="1600" y2="1080" gradientUnits="userSpaceOnUse">
      <stop stop-color="#07131B"/>
      <stop offset="0.5" stop-color="#0B101B"/>
      <stop offset="1" stop-color="#140F0A"/>
    </linearGradient>
    <radialGradient id="amberGlow" cx="0" cy="0" r="1" gradientUnits="userSpaceOnUse" gradientTransform="translate(1270 206) rotate(127.875) scale(492.434 549.581)">
      <stop stop-color="#F7931A" stop-opacity="0.24"/>
      <stop offset="1" stop-color="#F7931A" stop-opacity="0"/>
    </radialGradient>
    <radialGradient id="cyanGlow" cx="0" cy="0" r="1" gradientUnits="userSpaceOnUse" gradientTransform="translate(273 874) rotate(12.332) scale(524.221 278.198)">
      <stop stop-color="#2DD4BF" stop-opacity="0.18"/>
      <stop offset="1" stop-color="#2DD4BF" stop-opacity="0"/>
    </radialGradient>
    <linearGradient id="panel" x1="0" y1="0" x2="0" y2="1">
      <stop stop-color="#121A28"/>
      <stop offset="1" stop-color="#0C1320"/>
    </linearGradient>
    <linearGradient id="panel2" x1="0" y1="0" x2="1" y2="1">
      <stop stop-color="#16110C"/>
      <stop offset="1" stop-color="#111A20"/>
    </linearGradient>
    <linearGradient id="beam" x1="0" y1="0" x2="1" y2="1">
      <stop stop-color="#F7931A"/>
      <stop offset="1" stop-color="#36CFC9"/>
    </linearGradient>
    <filter id="shadow" x="-50%" y="-50%" width="200%" height="200%">
      <feDropShadow dx="0" dy="18" stdDeviation="24" flood-color="#000000" flood-opacity="0.28"/>
    </filter>
    <pattern id="dots" width="24" height="24" patternUnits="userSpaceOnUse">
      <circle cx="1.5" cy="1.5" r="1.5" fill="#FFFFFF" fill-opacity="0.045"/>
    </pattern>
  </defs>

  <rect width="1600" height="1080" fill="url(#bg)"/>
  <rect width="1600" height="1080" fill="url(#dots)"/>
  <rect width="1600" height="1080" fill="url(#amberGlow)"/>
  <rect width="1600" height="1080" fill="url(#cyanGlow)"/>

  <rect x="36" y="28" width="1528" height="1024" rx="34" fill="#0A0F18" stroke="rgba(255,255,255,0.08)" filter="url(#shadow)"/>

  <rect x="36" y="28" width="1528" height="78" rx="34" fill="#0D1420"/>
  <rect x="36" y="78" width="1528" height="1" fill="rgba(255,255,255,0.08)"/>
  <text x="82" y="74" fill="#E8EEF8" font-family="Arial, Helvetica, sans-serif" font-size="26" font-weight="700">Hash Playground</text>
  <text x="82" y="52" fill="#7F8DA3" font-family="Arial, Helvetica, sans-serif" font-size="13" letter-spacing="0.2em">MODULE 1 / BITCOIN VISUAL</text>
  <text x="1260" y="53" fill="#8090A8" font-family="Arial, Helvetica, sans-serif" font-size="12" letter-spacing="0.18em">LIVE UPDATE &lt;100MS</text>

  <rect x="1302" y="34" width="222" height="44" rx="22" fill="#101A28" stroke="rgba(255,255,255,0.08)"/>
  <rect x="1306" y="38" width="108" height="36" rx="18" fill="#F7931A"/>
  <text x="1330" y="61" fill="#0D1420" font-family="Arial, Helvetica, sans-serif" font-size="14" font-weight="700">Live Hash</text>
  <text x="1438" y="61" fill="#C0CAD8" font-family="Arial, Helvetica, sans-serif" font-size="14" font-weight="600">Avalanche</text>

  <rect x="70" y="134" width="298" height="872" rx="28" fill="url(#panel)" stroke="rgba(255,255,255,0.08)"/>
  <text x="102" y="180" fill="#F3F6FB" font-family="Arial, Helvetica, sans-serif" font-size="18" font-weight="700">Theory Panel</text>
  <text x="102" y="205" fill="#7C8BA1" font-family="Arial, Helvetica, sans-serif" font-size="13">Why tiny input changes explode into different outputs</text>

  <g>
    <rect x="94" y="248" width="250" height="88" rx="20" fill="#101827" stroke="#1E2B3D"/>
    <circle cx="122" cy="275" r="6" fill="#F7931A"/>
    <text x="140" y="280" fill="#EEF3FA" font-family="Arial, Helvetica, sans-serif" font-size="15" font-weight="700">Determinism</text>
    <text x="122" y="309" fill="#8FA0B9" font-family="Arial, Helvetica, sans-serif" font-size="13">Same input, same fingerprint.</text>
  </g>
  <g>
    <rect x="94" y="354" width="250" height="88" rx="20" fill="#101827" stroke="#1E2B3D"/>
    <circle cx="122" cy="381" r="6" fill="#36CFC9"/>
    <text x="140" y="386" fill="#EEF3FA" font-family="Arial, Helvetica, sans-serif" font-size="15" font-weight="700">Avalanche Effect</text>
    <text x="122" y="415" fill="#8FA0B9" font-family="Arial, Helvetica, sans-serif" font-size="13">One letter shifts the whole digest.</text>
  </g>
  <g>
    <rect x="94" y="460" width="250" height="88" rx="20" fill="#101827" stroke="#1E2B3D"/>
    <circle cx="122" cy="487" r="6" fill="#FF6B6B"/>
    <text x="140" y="492" fill="#EEF3FA" font-family="Arial, Helvetica, sans-serif" font-size="15" font-weight="700">Pre-image Resistance</text>
    <text x="122" y="521" fill="#8FA0B9" font-family="Arial, Helvetica, sans-serif" font-size="13">You can verify, not reverse.</text>
  </g>
  <g>
    <rect x="94" y="566" width="250" height="88" rx="20" fill="#101827" stroke="#1E2B3D"/>
    <circle cx="122" cy="593" r="6" fill="#FBBF24"/>
    <text x="140" y="598" fill="#EEF3FA" font-family="Arial, Helvetica, sans-serif" font-size="15" font-weight="700">Fixed Output Length</text>
    <text x="122" y="627" fill="#8FA0B9" font-family="Arial, Helvetica, sans-serif" font-size="13">Always 256 bits, always 64 hex chars.</text>
  </g>
  <g>
    <rect x="94" y="672" width="250" height="118" rx="20" fill="#171109" stroke="#4B3415"/>
    <text x="122" y="704" fill="#FDBA74" font-family="Arial, Helvetica, sans-serif" font-size="12" letter-spacing="0.16em">WHY DOUBLE HASH?</text>
    <text x="122" y="734" fill="#F8E7D1" font-family="Arial, Helvetica, sans-serif" font-size="14" font-weight="700">Bitcoin often uses SHA-256d</text>
    <text x="122" y="761" fill="#C6A883" font-family="Arial, Helvetica, sans-serif" font-size="13">Second round hardens the result</text>
    <text x="122" y="781" fill="#C6A883" font-family="Arial, Helvetica, sans-serif" font-size="13">against length-extension quirks.</text>
  </g>

  <text x="410" y="182" fill="#F4F7FB" font-family="Arial, Helvetica, sans-serif" font-size="42" font-weight="700">A cryptographic fingerprint lab</text>
  <text x="410" y="220" fill="#8FA0B9" font-family="Arial, Helvetica, sans-serif" font-size="20">Type anything on the left. Watch SHA-256 and SHA-256d materialize on the right in real time.</text>

  <rect x="410" y="270" width="468" height="362" rx="30" fill="url(#panel)" stroke="rgba(255,255,255,0.08)"/>
  <text x="446" y="317" fill="#F3F6FB" font-family="Arial, Helvetica, sans-serif" font-size="22" font-weight="700">Input Lab</text>
  <text x="446" y="344" fill="#7F8DA3" font-family="Arial, Helvetica, sans-serif" font-size="14">Human-readable message</text>
  <rect x="446" y="375" width="396" height="150" rx="24" fill="#0B1320" stroke="#243348"/>
  <text x="476" y="427" fill="#E9EEF7" font-family="Courier New, monospace" font-size="28">Hello, Bitcoin!</text>
  <text x="476" y="463" fill="#90A0B7" font-family="Courier New, monospace" font-size="16">Try changing one letter and compare the output.</text>

  <rect x="446" y="550" width="110" height="38" rx="19" fill="#171E2C"/>
  <text x="470" y="574" fill="#D4DDEA" font-family="Arial, Helvetica, sans-serif" font-size="14" font-weight="700">15 chars</text>
  <rect x="566" y="550" width="112" height="38" rx="19" fill="#171E2C"/>
  <text x="592" y="574" fill="#D4DDEA" font-family="Arial, Helvetica, sans-serif" font-size="14" font-weight="700">15 bytes</text>
  <rect x="688" y="550" width="154" height="38" rx="19" fill="#171E2C"/>
  <text x="717" y="574" fill="#D4DDEA" font-family="Arial, Helvetica, sans-serif" font-size="14" font-weight="700">UTF-8 encoded</text>

  <rect x="410" y="664" width="468" height="138" rx="30" fill="url(#panel2)" stroke="rgba(247,147,26,0.24)"/>
  <text x="446" y="712" fill="#F8E7D1" font-family="Arial, Helvetica, sans-serif" font-size="18" font-weight="700">Quick Actions</text>
  <rect x="446" y="736" width="118" height="38" rx="19" fill="#F7931A"/>
  <text x="475" y="760" fill="#111723" font-family="Arial, Helvetica, sans-serif" font-size="14" font-weight="700">Random Input</text>
  <rect x="576" y="736" width="108" height="38" rx="19" fill="#151D2B" stroke="#324155"/>
  <text x="609" y="760" fill="#D4DDEA" font-family="Arial, Helvetica, sans-serif" font-size="14" font-weight="700">Empty</text>
  <rect x="696" y="736" width="130" height="38" rx="19" fill="#151D2B" stroke="#324155"/>
  <text x="738" y="760" fill="#D4DDEA" font-family="Arial, Helvetica, sans-serif" font-size="14" font-weight="700">Paste Demo</text>

  <g opacity="0.95">
    <path d="M910 442C985 442 1008 442 1046 442" stroke="url(#beam)" stroke-width="8" stroke-linecap="round"/>
    <circle cx="962" cy="442" r="8" fill="#F7931A"/>
    <circle cx="1000" cy="442" r="8" fill="#36CFC9"/>
    <text x="926" y="415" fill="#9EB0C8" font-family="Arial, Helvetica, sans-serif" font-size="14" letter-spacing="0.14em">SHA-256</text>
  </g>
  <g opacity="0.8">
    <path d="M910 710C995 710 1015 710 1052 710" stroke="url(#beam)" stroke-width="8" stroke-linecap="round"/>
    <circle cx="968" cy="710" r="8" fill="#F7931A"/>
    <circle cx="1006" cy="710" r="8" fill="#36CFC9"/>
    <text x="920" y="683" fill="#9EB0C8" font-family="Arial, Helvetica, sans-serif" font-size="14" letter-spacing="0.14em">COMPARE BIT FLIPS</text>
  </g>

  <rect x="1082" y="270" width="442" height="250" rx="30" fill="url(#panel)" stroke="rgba(255,255,255,0.08)"/>
  <text x="1118" y="318" fill="#EEF3FA" font-family="Arial, Helvetica, sans-serif" font-size="22" font-weight="700">SHA-256 Readout</text>
  <rect x="1328" y="296" width="160" height="30" rx="15" fill="#142434" stroke="#2F4963"/>
  <text x="1360" y="315" fill="#7DD3FC" font-family="Arial, Helvetica, sans-serif" font-size="12" font-weight="700">256-BIT OUTPUT</text>
  <rect x="1118" y="346" width="370" height="124" rx="22" fill="#08111C" stroke="#203346"/>
  <text x="1144" y="392" fill="#DCE6F3" font-family="Courier New, monospace" font-size="21">a2d4 5f9c 11ee 0aa4 5bd1 9a41</text>
  <text x="1144" y="425" fill="#DCE6F3" font-family="Courier New, monospace" font-size="21">4d2b 9ef7 0cb1 27f0 8441 8cd0</text>
  <text x="1144" y="458" fill="#DCE6F3" font-family="Courier New, monospace" font-size="21">9183 b0fe 8e77 c125 42a6 ee03</text>
  <rect x="1118" y="482" width="98" height="26" rx="13" fill="#162233"/>
  <text x="1144" y="499" fill="#98A7BC" font-family="Arial, Helvetica, sans-serif" font-size="12" font-weight="700">DETERMINISTIC</text>

  <rect x="1082" y="548" width="442" height="254" rx="30" fill="url(#panel2)" stroke="rgba(247,147,26,0.24)"/>
  <text x="1118" y="596" fill="#F8E7D1" font-family="Arial, Helvetica, sans-serif" font-size="22" font-weight="700">SHA-256d Readout</text>
  <rect x="1306" y="574" width="182" height="30" rx="15" fill="#2A1D10" stroke="#5A3E17"/>
  <text x="1335" y="593" fill="#FDBA74" font-family="Arial, Helvetica, sans-serif" font-size="12" font-weight="700">BITCOIN DOUBLE HASH</text>
  <rect x="1118" y="624" width="370" height="124" rx="22" fill="#120E09" stroke="#4B3415"/>
  <text x="1144" y="670" fill="#F8E7D1" font-family="Courier New, monospace" font-size="21">56ce 81b2 07af 48e0 1e13 4962</text>
  <text x="1144" y="703" fill="#F8E7D1" font-family="Courier New, monospace" font-size="21">9f7d 4b31 d9a4 b08c 7ad0 39f2</text>
  <text x="1144" y="736" fill="#F8E7D1" font-family="Courier New, monospace" font-size="21">6ef1 6a3e d219 aa88 02de c731</text>
  <rect x="1118" y="760" width="118" height="26" rx="13" fill="#2A1D10"/>
  <text x="1148" y="777" fill="#F2B980" font-family="Arial, Helvetica, sans-serif" font-size="12" font-weight="700">ANTI-EXTENSION</text>

  <rect x="410" y="830" width="1114" height="150" rx="30" fill="#0E1521" stroke="rgba(255,255,255,0.08)"/>
  <text x="446" y="877" fill="#EEF3FA" font-family="Arial, Helvetica, sans-serif" font-size="22" font-weight="700">Avalanche Preview</text>
  <text x="446" y="905" fill="#8EA0B8" font-family="Arial, Helvetica, sans-serif" font-size="14">One changed character can flip most of the 256 output bits.</text>
  <rect x="972" y="852" width="178" height="52" rx="26" fill="#171E2D" stroke="#314055"/>
  <text x="1010" y="872" fill="#8EA0B8" font-family="Arial, Helvetica, sans-serif" font-size="12" letter-spacing="0.14em">BITS CHANGED</text>
  <text x="1030" y="894" fill="#F7931A" font-family="Arial, Helvetica, sans-serif" font-size="24" font-weight="700">183 / 256</text>
  <rect x="446" y="924" width="1016" height="18" rx="9" fill="#131C2A"/>
  <rect x="454" y="928" width="68" height="10" rx="5" fill="#FF6B6B"/>
  <rect x="532" y="928" width="48" height="10" rx="5" fill="#36CFC9"/>
  <rect x="590" y="928" width="78" height="10" rx="5" fill="#FF6B6B"/>
  <rect x="678" y="928" width="24" height="10" rx="5" fill="#36CFC9"/>
  <rect x="712" y="928" width="82" height="10" rx="5" fill="#FF6B6B"/>
  <rect x="804" y="928" width="36" height="10" rx="5" fill="#36CFC9"/>
  <rect x="850" y="928" width="124" height="10" rx="5" fill="#FF6B6B"/>
  <rect x="984" y="928" width="30" height="10" rx="5" fill="#36CFC9"/>
  <rect x="1024" y="928" width="102" height="10" rx="5" fill="#FF6B6B"/>
  <rect x="1136" y="928" width="40" height="10" rx="5" fill="#36CFC9"/>
  <rect x="1186" y="928" width="146" height="10" rx="5" fill="#FF6B6B"/>
  <rect x="1342" y="928" width="112" height="10" rx="5" fill="#36CFC9"/>
</svg>
